<?xml version="1.0" encoding="UTF-8" standalone="no"?>
<!DOCTYPE svg PUBLIC "-//W3C//DTD SVG 1.1//EN"
 "http://www.w3.org/Graphics/SVG/1.1/DTD/svg11.dtd">
<!-- Generated by graphviz version 2.38.0 (20140413.2041)
 -->
<!-- Title: G Pages: 1 -->
<svg width="188pt" height="188pt"
 viewBox="0.00 0.00 188.32 188.00" xmlns="http://www.w3.org/2000/svg" xmlns:xlink="http://www.w3.org/1999/xlink">
<g id="graph0" class="graph" transform="scale(1 1) rotate(0) translate(4 184)">
<title>G</title>
<polygon fill="white" stroke="none" points="-4,4 -4,-184 184.324,-184 184.324,4 -4,4"/>
<!-- all&#45;targets -->
<!-- subgraph node wildcard -->
<g id="node1" class="node"><title>all&#45;targets</title>
<g id="a_node1"><a xlink:href="all-targets.svg" xlink:title="all&#45;targets">
<ellipse fill="#eff3ff" stroke="#bdd7e7" cx="54.3242" cy="-162" rx="54.1489" ry="18"/>
<text text-anchor="middle" x="54.3242" y="-158.6" font-family="serif" font-size="13.00" fill="#2171b5">all&#45;targets</text>
</a>
</g>
</g>
<!-- lib1 -->
<g id="node2" class="node"><title>lib1</title>
<g id="a_node2"><a xlink:href="lib1-uses.svg" xlink:title="lib1">
<ellipse fill="#eff3ff" stroke="#bdd7e7" cx="153.324" cy="-90" rx="27" ry="18"/>
<text text-anchor="middle" x="153.324" y="-86.6" font-family="serif" font-size="13.00" fill="#2171b5">lib1</text>
</a>
</g>
</g>
<!-- lib2 -->
<g id="node3" class="node"><title>lib2</title>
<g id="a_node3"><a xlink:href="lib2-uses.svg" xlink:title="lib2">
<ellipse fill="#eff3ff" stroke="#bdd7e7" cx="117.324" cy="-18" rx="27" ry="18"/>
<text text-anchor="middle" x="117.324" y="-14.6" font-family="serif" font-size="13.00" fill="#2171b5">lib2</text>
</a>
</g>
</g>
<!-- lib1&#45;&gt;lib2 -->
<!-- Wildcard edge -->
<g id="edge1" class="edge"><title>lib1&#45;&gt;lib2</title>
<path fill="none" stroke="#9ecae1" d="M144.975,-72.7646C140.613,-64.2831 135.177,-53.7144 130.283,-44.1974"/>
<polygon fill="#9ecae1" stroke="#9ecae1" points="133.315,-42.4395 125.628,-35.1473 127.09,-45.6409 133.315,-42.4395"/>
</g>
<!-- exe1 -->
<g id="node4" class="node"><title>exe1</title>
<g id="a_node4"><a xlink:href="exe1-uses.svg" xlink:title="exe1">
<polygon fill="#eff3ff" stroke="#bdd7e7" points="180.324,-180 126.324,-180 126.324,-144 180.324,-144 180.324,-180"/>
<text text-anchor="middle" x="153.324" y="-158.6" font-family="serif" font-size="13.00" fill="#2171b5">exe1</text>
</a>
</g>
</g>
<!-- exe1&#45;&gt;lib1 -->
<!-- Wildcard edge -->
<g id="edge2" class="edge"><title>exe1&#45;&gt;lib1</title>
<path fill="none" stroke="#9ecae1" d="M153.324,-143.697C153.324,-135.983 153.324,-126.712 153.324,-118.112"/>
<polygon fill="#9ecae1" stroke="#9ecae1" points="156.824,-118.104 153.324,-108.104 149.824,-118.104 156.824,-118.104"/>
</g>
<!-- exe2 -->
<g id="node5" class="node"><title>exe2</title>
<g id="a_node5"><a xlink:href="exe2-uses.svg" xlink:title="exe2">
<polygon fill="#eff3ff" stroke="#bdd7e7" points="108.324,-108 54.3242,-108 54.3242,-72 108.324,-72 108.324,-108"/>
<text text-anchor="middle" x="81.3242" y="-86.6" font-family="serif" font-size="13.00" fill="#2171b5">exe2</text>
</a>
</g>
</g>
<!-- exe2&#45;&gt;lib2 -->
<!-- Wildcard edge -->
<g id="edge3" class="edge"><title>exe2&#45;&gt;lib2</title>
<path fill="none" stroke="#9ecae1" d="M90.223,-71.6966C94.4882,-63.4033 99.6785,-53.3109 104.371,-44.1866"/>
<polygon fill="#9ecae1" stroke="#9ecae1" points="107.56,-45.6382 109.021,-35.1446 101.335,-42.4367 107.56,-45.6382"/>
</g>
</g>
</svg>
