<?xml version="1.0" encoding="UTF-8" standalone="no"?>
<!DOCTYPE svg PUBLIC "-//W3C//DTD SVG 1.1//EN"
 "http://www.w3.org/Graphics/SVG/1.1/DTD/svg11.dtd">
<!-- Generated by graphviz version 2.38.0 (20140413.2041)
 -->
<!-- Title: G Pages: 1 -->
<svg width="134pt" height="188pt"
 viewBox="0.00 0.00 134.00 188.00" xmlns="http://www.w3.org/2000/svg" xmlns:xlink="http://www.w3.org/1999/xlink">
<g id="graph0" class="graph" transform="scale(1 1) rotate(0) translate(4 184)">
<title>G</title>
<polygon fill="white" stroke="none" points="-4,4 -4,-184 130,-184 130,4 -4,4"/>
<!-- all -->
<!-- subgraph node wildcard -->
<g id="node1" class="node"><title>all</title>
<g id="a_node1"><a xlink:href="all.svg" xlink:title="all">
<ellipse fill="#eff3ff" stroke="#bdd7e7" cx="27" cy="-162" rx="27" ry="18"/>
<text text-anchor="middle" x="27" y="-158.6" font-family="serif" font-size="13.00" fill="#2171b5">all</text>
</a>
</g>
</g>
<!-- lib1 -->
<g id="node2" class="node"><title>lib1</title>
<g id="a_node2"><a xlink:href="lib1-uses.svg" xlink:title="lib1">
<ellipse fill="#eff3ff" stroke="#bdd7e7" cx="99" cy="-90" rx="27" ry="18"/>
<text text-anchor="middle" x="99" y="-86.6" font-family="serif" font-size="13.00" fill="#2171b5">lib1</text>
</a>
</g>
</g>
<!-- lib2 -->
<g id="node3" class="node"><title>lib2</title>
<g id="a_node3"><a xlink:href="lib2-uses.svg" xlink:title="lib2">
<ellipse fill="#eff3ff" stroke="#bdd7e7" cx="99" cy="-18" rx="27" ry="18"/>
<text text-anchor="middle" x="99" y="-14.6" font-family="serif" font-size="13.00" fill="#2171b5">lib2</text>
</a>
</g>
</g>
<!-- lib1&#45;&gt;lib2 -->
<!-- Wildcard edge -->
<g id="edge1" class="edge"><title>lib1&#45;&gt;lib2</title>
<path fill="none" stroke="#9ecae1" d="M99,-71.6966C99,-63.9827 99,-54.7125 99,-46.1124"/>
<polygon fill="#9ecae1" stroke="#9ecae1" points="102.5,-46.1043 99,-36.1043 95.5001,-46.1044 102.5,-46.1043"/>
</g>
<!-- exe1 -->
<g id="node4" class="node"><title>exe1</title>
<g id="a_node4"><a xlink:href="exe1-uses.svg" xlink:title="exe1">
<polygon fill="#eff3ff" stroke="#bdd7e7" points="126,-180 72,-180 72,-144 126,-144 126,-180"/>
<text text-anchor="middle" x="99" y="-158.6" font-family="serif" font-size="13.00" fill="#2171b5">exe1</text>
</a>
</g>
</g>
<!-- exe1&#45;&gt;lib1 -->
<!-- Wildcard edge -->
<g id="edge2" class="edge"><title>exe1&#45;&gt;lib1</title>
<path fill="none" stroke="#9ecae1" d="M99,-143.697C99,-135.983 99,-126.712 99,-118.112"/>
<polygon fill="#9ecae1" stroke="#9ecae1" points="102.5,-118.104 99,-108.104 95.5001,-118.104 102.5,-118.104"/>
</g>
</g>
</svg>
